# xmcd
#
# Track frame offsets: 
#        150
#        15687
#        32862
#        50037
#        69260
#        84012
#        102035
#        120807
#        131447
#        146355
#        165412
#        181600
#        200537
#        213525
#        244485
#        273430
#        295100
#        312892
#
# Disc length: 4788 seconds
#
# Revision: 0
# Processed by: cddbd v1.4PL0 Copyright (c) Steve Scherf et al.
# Submitted via: ExactAudioCopy v0.90b4
#
DISCID=f012b212
DTITLE=John Lee Hooker - Hooker and The Hogs [1965] and Never Get Out Thes
DTITLE=e Blues Alive [1972]
DYEAR=1900
DGENRE=Blues
TTITLE0=Mai Lee [mono]
TTITLE1=I'm Losing You
TTITLE2=Little Girl Go Back To School
TTITLE3=Little Dreamer
TTITLE4=Don't Be Messin' With My Bread
TTITLE5=Bad Luck And Trouble
TTITLE6=Waterfront
TTITLE7=No One Pleases Me But You
TTITLE8=It's Rainin' Here
TTITLE9=It's A Crazy Mixed Up World
TTITLE10=Seven Days And Seven Nights
TTITLE11=Bumblebee, Bumblebee
TTITLE12=Hit The Road
TTITLE13=Country Boy
TTITLE14=Boogie With The Hook
TTITLE15=T.B. Sheets
TTITLE16=Letter To My Baby
TTITLE17=Never Get Out Of These Blues Alive
EXTD=title 1 =01-11\ntitle 2 =12-18
EXTT0=
EXTT1=
EXTT2=
EXTT3=
EXTT4=
EXTT5=
EXTT6=
EXTT7=
EXTT8=
EXTT9=
EXTT10=
EXTT11=
EXTT12=
EXTT13=
EXTT14=
EXTT15=
EXTT16=
EXTT17=
PLAYORDER=
